# xmcd
#
# Track frame offsets:
#	150
#	17387
#	34660
#	54693
#	71706
#	85312
#	103120
#	123182
#	140651
#	153908
#
# Disc length: 2305 seconds
#
# Revision: 0
# Processed by: cddbd v1.5.1PL0 Copyright (c) Steve Scherf et al.
# Submitted via: EasyCDDAExtractor 5.0.5.1
#
DISCID=8008ff0a
DTITLE=Alan Jackson - High Mileage
DYEAR=1900
DGENRE=Country
TTITLE0=Right On The Money
TTITLE1=Gone Crazy
TTITLE2=Little Man
TTITLE3=What A Day Yesterday Was
TTITLE4=Hurtin' Comes Easy
TTITLE5=I'll Go On Loving You
TTITLE6=Another Good Reason
TTITLE7=A Woman's Love
TTITLE8=Dancin' All Around It
TTITLE9=Amarillo
EXTD=
EXTT0=
EXTT1=
EXTT2=
EXTT3=
EXTT4=
EXTT5=
EXTT6=
EXTT7=
EXTT8=
EXTT9=
PLAYORDER=
